<?xml version="1.0" encoding="UTF-8"?><svg version="1.1" width="146px" height="155px" viewBox="0 0 146.0 155.0" xmlns="http://www.w3.org/2000/svg" xmlns:xlink="http://www.w3.org/1999/xlink"><defs><clipPath id="i0"><path d="M1440,0 L1440,800 L0,800 L0,0 L1440,0 Z"></path></clipPath><clipPath id="i1"><path d="M133.940423,148.265785 C134.449293,146.689011 136.140041,145.823303 137.716816,146.332172 C139.349731,146.85916 141.00871,147.368657 142.693894,147.860469 C144.284398,148.324648 145.197464,149.990299 144.733284,151.580803 C144.269105,153.171307 142.603454,154.084373 141.01295,153.620193 C139.273771,153.112623 137.560844,152.586558 135.874037,152.042178 C134.297262,151.533308 133.431554,149.84256 133.940423,148.265785 Z M108.349802,136.929646 C109.133175,135.469683 110.951758,134.921198 112.411721,135.704571 C116.318177,137.800659 120.446055,139.760137 124.799545,141.577354 C126.328542,142.215581 127.050653,143.972464 126.412425,145.501461 C125.774197,147.030458 124.017314,147.752569 122.488318,147.114341 C117.957051,145.222918 113.653741,143.180163 109.574877,140.991566 C108.114914,140.208193 107.566429,138.38961 108.349802,136.929646 Z M85.8105785,120.377975 C86.9195824,119.14701 88.8165025,119.04814 90.0474681,120.157144 C93.3330042,123.117155 96.8942127,125.931262 100.738203,128.58945 C102.100959,129.531821 102.441749,131.400495 101.499379,132.763251 C100.557009,134.126007 98.6883343,134.466797 97.3255783,133.524427 C93.2711345,130.720706 89.5083086,127.747279 86.0314099,124.614865 C84.8004442,123.505861 84.7015746,121.608941 85.8105785,120.377975 Z M68.65406,98.3434719 C70.0734638,97.488803 71.9169639,97.9466111 72.7716328,99.3660149 C75.0624325,103.170494 77.6788987,106.853469 80.631827,110.395008 C81.6928682,111.667548 81.5214146,113.559289 80.2488748,114.620331 C78.9763349,115.681372 77.0845938,115.509918 76.0235526,114.237378 C72.8734787,110.459396 70.0794356,106.526461 67.6315169,102.461045 C66.7768481,101.041641 67.2346562,99.1981408 68.65406,98.3434719 Z M88.4051078,89.7612672 C90.0178079,89.3813142 91.6331724,90.3806533 92.0131254,91.9933534 C92.3930783,93.6060536 91.3937393,95.2214181 89.7810391,95.601371 C85.19809,96.6811161 80.5642447,97.2403308 76.4930857,97.2403308 C76.0485005,97.2403308 75.6059901,97.2372164 75.1655548,97.2310174 C73.5088646,97.2076998 72.1847545,95.8457845 72.2080721,94.1890943 C72.2313897,92.5324041 73.593305,91.208294 75.2499952,91.2316116 C75.6622635,91.2374142 76.0766738,91.2403211 76.4931559,91.2403308 C80.0917637,91.2403309 84.264791,90.7367278 88.4051078,89.7612672 Z M59.1207264,72.1045314 C60.7371837,71.7408942 62.3423674,72.7565055 62.7060046,74.3729628 C63.676309,78.6862059 65.0134515,83.0050943 66.7341765,87.2713621 C67.3539287,88.8079405 66.6106942,90.5559918 65.0741158,91.175744 C64.6899712,91.3306821 64.2926095,91.4004335 63.9029648,91.3938988 L63.872,91.392 L63.895775,91.4342353 C64.1741471,91.9701693 64.2931809,92.593072 64.2039015,93.2295046 L64.174351,93.4033574 C63.8496547,95.0280845 62.2693348,96.0819678 60.6446076,95.7572715 C55.6354334,94.7562047 50.9663766,93.2474246 46.6423952,91.2292054 C45.1410299,90.5284428 44.4920131,88.7432654 45.1927757,87.2419001 C45.8935383,85.7405348 47.6787157,85.091518 49.180081,85.7922806 C53.061238,87.6038115 57.2730374,88.9648313 61.820437,89.873614 L61.283,89.762 L61.2403923,89.677255 L61.1697338,89.5156833 C59.3260722,84.9446135 57.8928995,80.315553 56.8522951,75.6898096 C56.4886579,74.0733524 57.5042692,72.4681687 59.1207264,72.1045314 Z M110.571465,77.1679162 C111.567388,75.8437928 113.448158,75.577734 114.772281,76.5736572 C116.096405,77.5695805 116.362463,79.4503499 115.36654,80.7744734 C112.46877,84.6271852 108.477183,87.8615307 103.643319,90.4603 C102.183992,91.2448591 100.364964,90.6978522 99.580405,89.238526 C98.7958459,87.7791997 99.3428528,85.9601713 100.802179,85.1756122 C104.914822,82.9645839 108.235142,80.2741603 110.571465,77.1679162 Z M25.1301177,68.0820275 C26.4901797,67.1357731 28.3598185,67.4712305 29.3060729,68.8312925 C31.9276142,72.599263 34.8737867,75.8833049 38.1461883,78.6894026 C39.4039413,79.7679309 39.5492317,81.6618611 38.4707033,82.9196141 C37.392175,84.1773672 35.4982448,84.3226575 34.2404918,83.2441291 C30.5759777,80.1017935 27.2888988,76.4377498 24.3808527,72.2579827 C23.4345983,70.8979208 23.7700557,69.0282819 25.1301177,68.0820275 Z M113.592312,49.5174313 C115.123688,48.8849319 116.877855,49.6136149 117.510354,51.1449903 C119.692354,56.4279374 120.692872,61.3906853 120.55169,66.015527 C120.501135,67.6716098 119.117632,68.9731473 117.461549,68.9225923 C115.805466,68.8720374 114.503929,67.4885341 114.554484,65.8324513 C114.668568,62.0952528 113.836188,57.9664954 111.964753,53.4354732 C111.332254,51.9040978 112.060937,50.1499307 113.592312,49.5174313 Z M58.2028945,46.20956 C58.9633203,44.7375143 60.773096,44.1606323 62.2451418,44.9210581 C63.7171875,45.6814839 64.2940694,47.4912596 63.5336437,48.9633054 C61.6347347,52.639247 60.7019244,56.5603724 60.8492661,60.4509429 L60.8743794,61.0315416 C60.9529104,62.6865337 59.6749362,64.0918319 58.0199441,64.1703629 C56.364952,64.2488939 54.9596538,62.9709197 54.8811228,61.3159276 L54.8537658,60.6832114 C54.6658935,55.7225794 55.8415246,50.7807417 58.2028945,46.20956 Z M14.773191,42.1451446 C16.3737839,41.717046 18.0183633,42.6675403 18.446462,44.2681331 C19.682432,48.8892279 21.1508396,53.1646332 22.8500586,57.0948649 C23.5075714,58.6156682 22.8077362,60.3815424 21.2869328,61.0390553 C19.7661295,61.6965681 18.0002553,60.9967329 17.3427424,59.4759295 C15.5237711,55.2687151 13.9601333,50.7160384 12.6502025,45.8184157 C12.2221038,44.2178228 13.1725981,42.5732433 14.773191,42.1451446 Z M93.5369196,31.0942845 C94.1209925,29.5437927 95.8513991,28.7603553 97.4018909,29.3444281 C102.026078,31.0863673 106.24248,34.0991329 109.873161,38.3443351 C110.950048,39.6034937 110.802287,41.4972329 109.543129,42.5741198 C108.28397,43.6510068 106.390231,43.5032465 105.313344,42.2440879 C102.328796,38.7543816 98.9472889,36.338177 95.286776,34.9592558 C93.7362842,34.3751829 92.9528468,32.6447763 93.5369196,31.0942845 Z M81.8985356,28.1730219 C83.5230356,27.8471907 85.1040913,28.8999698 85.4299225,30.5244697 C85.7557537,32.1489696 84.7029746,33.7300254 83.0784747,34.0558566 C79.0622072,34.8614123 75.1302209,36.689068 71.683671,39.3278921 C70.3681304,40.3351255 68.4851501,40.0851931 67.4779167,38.7696526 C66.4706834,37.454112 66.7206157,35.5711317 68.0361563,34.5638983 C72.1944735,31.3801152 76.9655083,29.1624551 81.8985356,28.1730219 Z M12.7060619,0.443322061 C13.1086984,0.690346805 13.4473116,1.02896001 13.6943363,1.43159656 L21.8315695,14.6948325 C22.6980097,16.1070815 22.2555441,17.9543241 20.843295,18.8207643 C20.3712553,19.1103691 19.8282646,19.2636611 19.2744664,19.2636611 L14.2919162,19.2652991 C14.632312,23.3044159 15.0894754,27.1732633 15.6631109,30.8716852 C15.9170572,32.5089626 14.7956458,34.0421023 13.1583684,34.2960486 C11.521091,34.5499949 9.98795129,33.4285835 9.73400499,31.7913061 C9.11457693,27.7976447 8.62708454,23.6219222 8.27119498,19.2639625 L3,19.2636611 C1.34314575,19.2636611 1.91846539e-13,17.9205154 1.91846539e-13,16.2636611 C1.91846539e-13,15.7098629 0.153291991,15.1668722 0.442896834,14.6948325 L8.58013002,1.43159656 C9.44657017,0.0193474743 11.2938128,-0.423118089 12.7060619,0.443322061 Z"></path></clipPath></defs><g transform="translate(-769.0 -288.0)"><g clip-path="url(#i0)"><g transform="translate(914.6398384733691 288.75966913534836) scale(-1.0 1.0)"><g clip-path="url(#i1)"><polygon points="1.91846539e-13,7.14983628e-14 144.854203,7.14983628e-14 144.854203,153.741111 1.91846539e-13,153.741111 1.91846539e-13,7.14983628e-14" stroke="none" fill="#FFFFFF"></polygon></g></g></g></g></svg>